<?xml version="1.0" encoding="utf-8"?>
<!-- Generator: Adobe Illustrator 24.3.0, SVG Export Plug-In . SVG Version: 6.00 Build 0)  -->
<svg version="1.1" id="Layer_1" xmlns="http://www.w3.org/2000/svg" xmlns:xlink="http://www.w3.org/1999/xlink" x="0px" y="0px"
	 viewBox="0 0 50 50" style="enable-background:new 0 0 50 50;" xml:space="preserve">
<style type="text/css">
	.st0{fill:#EAC92B;}
	.st1{fill:none;stroke:#231F20;stroke-width:1.0222;stroke-miterlimit:10;}
	.st2{opacity:0.5;fill:#FFFFFF;}
	.st3{fill:#231F20;}
</style>
<circle class="st0" cx="25" cy="25" r="25"/>
<circle class="st1" cx="25" cy="25" r="23"/>
<path class="st2" d="M25.72,10.1c1.67,0,3.09,1.09,3.58,2.61c0.29-0.11,0.6-0.17,0.92-0.17c1.43,0,2.59,1.16,2.59,2.59
	s-1.16,2.59-2.59,2.59c-0.83,0-1.58-0.39-2.05-1.01c-0.66,0.56-1.51,0.91-2.45,0.91c-1.18,0-2.23-0.54-2.92-1.39
	c-0.57,0.66-1.41,1.08-2.35,1.08c-0.81,0-1.54-0.31-2.09-0.81c-0.47,0.65-1.24,1.07-2.1,1.07c-3.97,0-3.63-5.19,0-5.19
	c0.53,0,1.03,0.16,1.44,0.43c0.51-1,1.55-1.69,2.75-1.69c0.79,0,1.51,0.3,2.05,0.78C23.17,10.83,24.36,10.1,25.72,10.1z M25.72,8
	c-1.29,0-2.59,0.43-3.66,1.29C20.34,8.73,18.4,9.09,17,10.34c-2.86-0.45-5.67,1.41-5.67,4.89c0,2.59,2.34,4.44,4.93,4.44
	c0.82,0,1.61-0.22,2.31-0.61c1.33,0.52,2.84,0.47,4.14-0.17c1.55,0.93,3.52,1.11,5.28,0.37c0.67,0.36,1.44,0.56,2.23,0.56
	c2.59,0,4.69-2.11,4.69-4.69c0-2.5-1.96-4.55-4.43-4.69C29.47,9.02,27.75,8,25.72,8z M22,34.67h-2.67V21.24
	c0.81,0.26,1.97,0.23,2.67-0.19V34.67z M32.67,36.3V21.13c-0.83,0.31-1.73,0.45-2.67,0.39V36.3c0,0.36,0.03,0.72,0.11,1.05H16.55
	c0.09-0.34,0.11-0.69,0.11-1.05V21.35c-0.89,0.09-1.77-0.02-2.63-0.31V36.3c0,0.89-0.49,1.6-1.37,1.6V40H34v-2.1
	C33.11,37.9,32.67,37.18,32.67,36.3z M36.47,20H34v2.67h1.99c3.22,0,2.22,5.9-1.99,8.34v2.88c4.28-1.62,6.67-5.9,6.67-9.28
	C40.67,22.05,39.33,20,36.47,20z"/>
<g>
	<path class="st3" d="M8.2,21.56h2.55c0.52,0,0.97,0.1,1.33,0.29c0.36,0.19,0.67,0.48,0.9,0.87c0.08,0.14,0.15,0.28,0.19,0.42
		c0.05,0.15,0.08,0.31,0.1,0.48s0.04,0.38,0.04,0.6c0,0.22,0.01,0.48,0.01,0.78c0,0.3,0,0.56-0.01,0.78c0,0.22-0.02,0.42-0.04,0.6
		c-0.02,0.18-0.06,0.34-0.1,0.48c-0.05,0.14-0.11,0.29-0.19,0.42c-0.24,0.39-0.54,0.68-0.9,0.87c-0.36,0.19-0.81,0.29-1.33,0.29H8.2
		V21.56z M10.64,26.93c0.21,0,0.38-0.04,0.51-0.11c0.13-0.07,0.23-0.16,0.3-0.28c0.03-0.04,0.06-0.1,0.08-0.15
		c0.02-0.06,0.04-0.14,0.06-0.25c0.02-0.11,0.03-0.25,0.03-0.44c0.01-0.18,0.01-0.42,0.01-0.71s0-0.53-0.01-0.71
		c-0.01-0.18-0.02-0.32-0.03-0.43c-0.02-0.11-0.04-0.19-0.06-0.25c-0.02-0.06-0.05-0.11-0.08-0.16c-0.08-0.12-0.18-0.21-0.3-0.28
		c-0.13-0.07-0.3-0.11-0.51-0.11H9.89v3.87H10.64z"/>
	<path class="st3" d="M14.5,21.56h2.73c0.38,0,0.72,0.06,1.01,0.19c0.29,0.13,0.54,0.29,0.73,0.5c0.2,0.21,0.35,0.44,0.45,0.71
		c0.1,0.26,0.15,0.54,0.15,0.82c0,0.23-0.03,0.44-0.1,0.64c-0.07,0.19-0.15,0.36-0.26,0.51c-0.11,0.15-0.23,0.28-0.36,0.39
		c-0.13,0.11-0.27,0.2-0.4,0.26l1.49,2.87h-1.96l-1.22-2.56h-0.57v2.56H14.5V21.56z M17.14,24.46c0.23,0,0.41-0.07,0.54-0.21
		c0.13-0.14,0.19-0.3,0.19-0.48c0-0.18-0.06-0.34-0.19-0.48c-0.13-0.14-0.31-0.21-0.54-0.21h-0.96v1.39H17.14z"/>
	<path class="st3" d="M20.8,21.56h1.69v6.88H20.8V21.56z"/>
	<path class="st3" d="M23.88,21.56h1.48l2.2,3.46v-3.46h1.69v6.88h-1.48l-2.2-3.46v3.46h-1.69V21.56z"/>
	<path class="st3" d="M30.65,21.56h1.69v2.44l1.99-2.44h2.07l-2.35,2.78l2.43,4.1h-1.97l-1.59-2.82l-0.58,0.67v2.16h-1.69V21.56z"/>
	<path class="st3" d="M39.14,28.5c-0.26,0-0.52-0.01-0.75-0.04c-0.24-0.03-0.47-0.08-0.69-0.15c-0.22-0.07-0.43-0.16-0.62-0.28
		c-0.19-0.12-0.38-0.26-0.55-0.44l1.08-1.08c0.18,0.18,0.41,0.31,0.7,0.38c0.28,0.07,0.56,0.11,0.84,0.11
		c0.66,0,0.99-0.21,0.99-0.62c0-0.17-0.05-0.31-0.14-0.41c-0.1-0.1-0.25-0.16-0.45-0.18l-0.83-0.12c-0.61-0.09-1.07-0.29-1.38-0.61
		c-0.32-0.32-0.47-0.78-0.47-1.38c0-0.32,0.06-0.61,0.17-0.87c0.12-0.26,0.28-0.49,0.5-0.69c0.22-0.19,0.48-0.34,0.79-0.45
		c0.31-0.11,0.66-0.16,1.05-0.16c0.5,0,0.93,0.06,1.31,0.19c0.38,0.13,0.71,0.34,1.01,0.63l-1.06,1.06
		c-0.18-0.18-0.37-0.29-0.58-0.34c-0.21-0.05-0.45-0.07-0.73-0.07c-0.15,0-0.27,0.02-0.38,0.06c-0.1,0.04-0.19,0.09-0.26,0.15
		c-0.07,0.06-0.12,0.13-0.15,0.2c-0.03,0.07-0.05,0.15-0.05,0.23c0,0.04,0.01,0.1,0.03,0.15c0.02,0.06,0.05,0.11,0.11,0.16
		c0.04,0.04,0.1,0.09,0.18,0.13c0.07,0.04,0.17,0.06,0.29,0.08l0.83,0.12c0.61,0.08,1.06,0.27,1.35,0.57
		c0.19,0.18,0.32,0.4,0.4,0.65c0.08,0.25,0.12,0.54,0.12,0.86c0,0.35-0.07,0.66-0.21,0.93s-0.33,0.5-0.58,0.68
		c-0.24,0.18-0.52,0.32-0.85,0.42C39.84,28.45,39.5,28.5,39.14,28.5z"/>
</g>
</svg>
