<?xml version="1.0" encoding="utf-8"?>
<!-- Generator: Adobe Illustrator 24.3.0, SVG Export Plug-In . SVG Version: 6.00 Build 0)  -->
<svg version="1.1" id="Layer_1" xmlns="http://www.w3.org/2000/svg" xmlns:xlink="http://www.w3.org/1999/xlink" x="0px" y="0px"
	 viewBox="0 0 50 50" style="enable-background:new 0 0 50 50;" xml:space="preserve">
<style type="text/css">
	.st0{fill:#EAC92B;}
	.st1{fill:none;stroke:#231F20;stroke-width:1.0222;stroke-miterlimit:10;}
	.st2{opacity:0.5;fill:#FFFFFF;}
	.st3{fill:#231F20;}
</style>
<circle class="st0" cx="25" cy="25" r="25"/>
<circle class="st1" cx="25" cy="25" r="23"/>
<path class="st2" d="M40,11.5V39H10V11.5h3.75v1.25c0,1.38,1.12,2.5,2.5,2.5s2.5-1.12,2.5-2.5V11.5h12.5v1.25
	c0,1.38,1.12,2.5,2.5,2.5s2.5-1.12,2.5-2.5V11.5H40z M37.5,19h-25v17.5h25V19z M35,10.25C35,9.56,34.44,9,33.75,9
	s-1.25,0.56-1.25,1.25v2.5c0,0.69,0.56,1.25,1.25,1.25S35,13.44,35,12.75V10.25z M17.5,12.75c0,0.69-0.56,1.25-1.25,1.25
	S15,13.44,15,12.75v-2.5C15,9.56,15.56,9,16.25,9s1.25,0.56,1.25,1.25V12.75z M18.75,27.41l1.07-0.99c1.25,0.6,2.04,1.06,3.45,2.07
	c2.64-3,4.39-4.52,7.63-6.54l0.35,0.8c-2.68,2.34-4.64,4.94-7.46,10C22.05,30.7,20.89,29.39,18.75,27.41z"/>
<g>
	<path class="st3" d="M7.72,21.56h4.68v1.51H9.41v1.15h2.55v1.51H9.41v1.21h2.99v1.51H7.72V21.56z"/>
	<path class="st3" d="M12.9,21.56h1.75l1.16,3.85l1.14-3.85h1.76l-2.28,6.88h-1.26L12.9,21.56z"/>
	<path class="st3" d="M19.41,21.56h4.68v1.51H21.1v1.15h2.55v1.51H21.1v1.21h2.99v1.51h-4.68V21.56z"/>
	<path class="st3" d="M25.29,21.56h1.48l2.2,3.46v-3.46h1.69v6.88h-1.48l-2.2-3.46v3.46h-1.69V21.56z"/>
	<path class="st3" d="M33.34,23.07h-1.69v-1.51h5.08v1.51h-1.69v5.38h-1.69V23.07z"/>
	<path class="st3" d="M39.62,28.5c-0.26,0-0.52-0.01-0.75-0.04s-0.47-0.08-0.69-0.14c-0.22-0.07-0.43-0.16-0.62-0.28
		c-0.19-0.12-0.38-0.26-0.55-0.45l1.08-1.08c0.18,0.18,0.41,0.31,0.7,0.38c0.28,0.07,0.56,0.11,0.84,0.11
		c0.66,0,0.99-0.21,0.99-0.62c0-0.17-0.05-0.31-0.14-0.41c-0.1-0.1-0.25-0.16-0.45-0.18l-0.83-0.12c-0.61-0.09-1.07-0.29-1.38-0.61
		c-0.32-0.32-0.47-0.78-0.47-1.38c0-0.32,0.06-0.61,0.17-0.87s0.28-0.49,0.5-0.69c0.22-0.19,0.48-0.34,0.79-0.45
		c0.31-0.11,0.66-0.16,1.05-0.16c0.5,0,0.93,0.06,1.31,0.19c0.38,0.13,0.71,0.34,1.01,0.63l-1.06,1.06
		c-0.18-0.18-0.37-0.29-0.58-0.34c-0.21-0.04-0.45-0.07-0.73-0.07c-0.15,0-0.27,0.02-0.38,0.06c-0.1,0.04-0.19,0.09-0.26,0.15
		c-0.07,0.06-0.12,0.13-0.15,0.2c-0.03,0.07-0.05,0.15-0.05,0.23c0,0.04,0.01,0.1,0.03,0.16c0.02,0.06,0.05,0.11,0.11,0.16
		c0.04,0.04,0.1,0.09,0.18,0.13c0.07,0.04,0.17,0.06,0.29,0.08l0.83,0.12c0.61,0.08,1.06,0.27,1.35,0.57
		c0.19,0.18,0.32,0.4,0.4,0.65c0.08,0.25,0.12,0.54,0.12,0.86c0,0.35-0.07,0.66-0.21,0.93c-0.14,0.27-0.33,0.5-0.58,0.68
		c-0.24,0.18-0.52,0.32-0.85,0.42C40.33,28.45,39.99,28.5,39.62,28.5z"/>
</g>
</svg>
