<?xml version="1.0" encoding="utf-8"?>
<!-- Generator: Adobe Illustrator 24.3.0, SVG Export Plug-In . SVG Version: 6.00 Build 0)  -->
<svg version="1.1" id="Layer_1" xmlns="http://www.w3.org/2000/svg" xmlns:xlink="http://www.w3.org/1999/xlink" x="0px" y="0px"
	 viewBox="0 0 100 100" style="enable-background:new 0 0 100 100;" xml:space="preserve">
<style type="text/css">
	.st0{fill:#E9C926;}
</style>
<path class="st0" d="M50,0C22.39,0,0,22.39,0,50c0,27.61,22.39,50,50,50c27.61,0,50-22.39,50-50C100,22.39,77.62,0,50,0z
	 M65.5,30.06l-5.62,0c-4.4,0-5.26,2.09-5.26,5.17v6.78h10.51l-1.37,10.61h-9.14v27.23H43.66V52.62H34.5V42.01h9.16v-7.83
	c0-9.08,5.55-14.03,13.65-14.03c3.88,0,7.22,0.29,8.19,0.42V30.06z"/>
</svg>
