<?xml version="1.0" encoding="utf-8"?>
<!-- Generator: Adobe Illustrator 24.3.0, SVG Export Plug-In . SVG Version: 6.00 Build 0)  -->
<svg version="1.1" id="Layer_1" xmlns="http://www.w3.org/2000/svg" xmlns:xlink="http://www.w3.org/1999/xlink" x="0px" y="0px"
	 viewBox="0 0 100 100" style="enable-background:new 0 0 100 100;" xml:space="preserve">
<style type="text/css">
	.st0{fill:#E9C926;}
</style>
<g>
	<path class="st0" d="M71.67,33.6c-0.5-1.3-1.11-2.23-2.08-3.2c-0.98-0.97-1.9-1.57-3.2-2.08c-0.98-0.38-2.45-0.83-5.16-0.95
		c-2.93-0.13-3.81-0.16-11.23-0.16c-7.42,0-8.3,0.03-11.23,0.16c-2.71,0.12-4.18,0.57-5.16,0.95c-1.3,0.51-2.22,1.11-3.19,2.08
		c-0.97,0.97-1.58,1.9-2.08,3.2c-0.38,0.98-0.83,2.45-0.96,5.16c-0.13,2.93-0.16,3.81-0.16,11.23c0,7.42,0.03,8.3,0.16,11.23
		c0.12,2.71,0.58,4.18,0.96,5.16c0.5,1.3,1.11,2.23,2.08,3.2c0.97,0.97,1.9,1.57,3.19,2.08c0.98,0.38,2.45,0.83,5.16,0.96
		c2.93,0.13,3.81,0.16,11.23,0.16c7.42,0,8.3-0.03,11.23-0.16c2.71-0.12,4.18-0.58,5.16-0.96c1.3-0.5,2.22-1.11,3.2-2.08
		c0.97-0.97,1.57-1.9,2.08-3.2c0.38-0.98,0.83-2.45,0.96-5.16c0.13-2.93,0.16-3.81,0.16-11.23c0-7.42-0.03-8.3-0.16-11.23
		C72.5,36.05,72.05,34.58,71.67,33.6z M50,64.27c-7.88,0-14.27-6.39-14.27-14.27c0-7.88,6.39-14.27,14.27-14.27
		c7.89,0,14.27,6.39,14.27,14.27C64.27,57.88,57.89,64.27,50,64.27z M64.84,38.49c-1.84,0-3.34-1.49-3.34-3.34
		c0-1.84,1.49-3.33,3.34-3.33c1.84,0,3.33,1.49,3.33,3.33C68.17,37,66.68,38.49,64.84,38.49z"/>
	<path class="st0" d="M50,0C22.38,0,0,22.39,0,50c0,27.61,22.39,50,50,50c27.61,0,50-22.39,50-50C100,22.39,77.61,0,50,0z
		 M77.63,61.46c-0.14,2.96-0.6,4.98-1.29,6.75c-0.71,1.82-1.66,3.38-3.21,4.92c-1.54,1.55-3.1,2.5-4.92,3.21
		c-1.77,0.68-3.78,1.15-6.75,1.29c-2.96,0.13-3.91,0.17-11.46,0.17c-7.55,0-8.5-0.04-11.46-0.17c-2.96-0.14-4.98-0.61-6.75-1.29
		c-1.83-0.71-3.38-1.66-4.92-3.21c-1.55-1.54-2.5-3.09-3.2-4.92c-0.69-1.77-1.16-3.79-1.29-6.75C22.24,58.49,22.2,57.54,22.2,50
		c0-7.55,0.04-8.5,0.17-11.46c0.14-2.96,0.6-4.98,1.29-6.74c0.71-1.83,1.66-3.38,3.2-4.93c1.54-1.55,3.09-2.5,4.92-3.21
		c1.77-0.69,3.79-1.16,6.75-1.29C41.5,22.23,42.45,22.2,50,22.2c7.55,0,8.5,0.03,11.46,0.17c2.96,0.14,4.98,0.6,6.75,1.29
		c1.83,0.71,3.38,1.66,4.92,3.21c1.55,1.55,2.5,3.09,3.21,4.93c0.69,1.76,1.15,3.78,1.29,6.74C77.76,41.5,77.8,42.45,77.8,50
		C77.8,57.54,77.76,58.49,77.63,61.46z"/>
	<path class="st0" d="M50,40.73c-5.12,0-9.26,4.15-9.26,9.27c0,5.12,4.15,9.27,9.26,9.27c5.12,0,9.27-4.15,9.27-9.27
		C59.27,44.88,55.12,40.73,50,40.73z"/>
</g>
</svg>
