<?xml version="1.0" encoding="utf-8"?>
<!-- Generator: Adobe Illustrator 24.3.0, SVG Export Plug-In . SVG Version: 6.00 Build 0)  -->
<svg version="1.1" id="Layer_1" xmlns="http://www.w3.org/2000/svg" xmlns:xlink="http://www.w3.org/1999/xlink" x="0px" y="0px"
	 viewBox="0 0 50 50" style="enable-background:new 0 0 50 50;" xml:space="preserve">
<style type="text/css">
	.st0{fill:#EAC92B;}
	.st1{fill:none;stroke:#231F20;stroke-width:1.0222;stroke-miterlimit:10;}
	.st2{opacity:0.5;fill-rule:evenodd;clip-rule:evenodd;fill:#FFFFFF;}
	.st3{fill:#231F20;}
</style>
<circle class="st0" cx="25" cy="25" r="25"/>
<circle class="st1" cx="25" cy="25" r="23"/>
<path class="st2" d="M9.88,21.6c0.05-7.75,7.29-12.04,15.26-12.04c7.66,0,15.02,4.15,14.98,12.04c0.81,0.72,1.32,1.76,1.38,2.87
	c0.06,1.1-0.33,2.15-1.05,2.96c0.62,0.69,1,1.59,1.05,2.54c0.07,1.28-0.46,2.49-1.42,3.32c0.38,3.21-1.27,5.03-3.95,5.12
	c-0.82,0.01-20.53,0.03-22.26,0.01c-2.98-0.09-4.28-2.13-3.96-5.15c-0.95-0.83-1.47-2.04-1.41-3.31c0.05-0.96,0.43-1.85,1.05-2.54
	c-0.72-0.8-1.11-1.86-1.05-2.96C8.56,23.36,9.07,22.33,9.88,21.6z M12.62,34.31L12.62,34.31c0.04,1.09,0.36,1.35,1.31,1.37
	c1.71,0.02,21.33,0,22.13-0.01c0.93-0.03,1.26-0.37,1.32-1.3C37.38,34.37,21.73,34.42,12.62,34.31z M25.61,28.81
	c-0.72,0-1.36,0.38-1.78,0.63c-1.22,0.72-2.18,1.44-3.65,1.43c-1.63-0.02-2.51-0.76-3.53-1.41c-0.4-0.25-0.87-0.66-1.57-0.65h-2.56
	c-0.74,0.06-1.24,0.65-1.27,1.3c-0.04,0.72,0.49,1.42,1.38,1.45h24.76c0.89-0.05,1.39-0.74,1.35-1.45c-0.04-0.65-0.54-1.24-1.27-1.3
	C37.44,28.81,27.83,28.8,25.61,28.81z M24.7,23.32l-12.07-0.01c-0.8,0.01-1.35,0.62-1.38,1.3c-0.04,0.72,0.49,1.42,1.38,1.45
	c0,0,1.41,0,2.74,0.01c1.98,0.01,3.33,2.3,4.82,2.29c1.33-0.01,3.14-2.29,5.11-2.29c2.02,0,12.09-0.01,12.09-0.01
	c0.89-0.05,1.39-0.74,1.35-1.45c-0.04-0.67-0.57-1.3-1.34-1.3l-2.17,0.01c-0.72,0-1.36,0.38-1.78,0.63
	c-1.22,0.72-2.18,1.44-3.65,1.43c-1.63-0.02-2.51-0.76-3.53-1.41C25.88,23.72,25.41,23.31,24.7,23.32z M21.56,16.43
	c0.38,0,0.69,0.31,0.69,0.69c0,0.38-0.31,0.69-0.69,0.69c-0.38,0-0.69-0.31-0.69-0.69C20.88,16.74,21.18,16.43,21.56,16.43z
	 M28.44,16.43c0.38,0,0.69,0.31,0.69,0.69c0,0.38-0.31,0.69-0.69,0.69c-0.38,0-0.69-0.31-0.69-0.69
	C27.75,16.74,28.06,16.43,28.44,16.43z M33.94,16.43c0.38,0,0.69,0.31,0.69,0.69c0,0.38-0.31,0.69-0.69,0.69
	c-0.38,0-0.69-0.31-0.69-0.69C33.25,16.74,33.56,16.43,33.94,16.43z M17.44,16.43c0.38,0,0.69,0.31,0.69,0.69
	c0,0.38-0.31,0.69-0.69,0.69s-0.69-0.31-0.69-0.69C16.75,16.74,17.06,16.43,17.44,16.43z M24.31,15.06c0.38,0,0.69,0.31,0.69,0.69
	c0,0.38-0.31,0.69-0.69,0.69s-0.69-0.31-0.69-0.69C23.63,15.37,23.93,15.06,24.31,15.06z M31.19,15.06c0.38,0,0.69,0.31,0.69,0.69
	c0,0.38-0.31,0.69-0.69,0.69c-0.38,0-0.69-0.31-0.69-0.69C30.5,15.37,30.81,15.06,31.19,15.06z M20.19,13.68
	c0.38,0,0.69,0.31,0.69,0.69c0,0.38-0.31,0.69-0.69,0.69s-0.69-0.31-0.69-0.69C19.5,13.99,19.81,13.68,20.19,13.68z M27.06,13.68
	c0.38,0,0.69,0.31,0.69,0.69c0,0.38-0.31,0.69-0.69,0.69c-0.38,0-0.69-0.31-0.69-0.69C26.38,13.99,26.68,13.68,27.06,13.68z
	 M37.38,20.56c-1.2-6.44-7.36-8.27-12.37-8.25c-5.4,0.02-11.35,2.4-12.37,8.25c0,0,11.96,0,12.37,0.01c1.98,0.01,3.33,2.3,4.82,2.29
	c1.33-0.01,3.14-2.29,5.11-2.29L37.38,20.56z"/>
<g>
	<path class="st3" d="M12.11,21.5h1.68l1.56,3.06l1.56-3.06h1.68v6.94h-1.71v-3.32l-0.98,1.72H14.8l-0.98-1.72v3.32h-1.71V21.5z"/>
	<path class="st3" d="M19.99,21.5h4.72v1.52h-3.01v1.16h2.57v1.52h-2.57v1.22h3.01v1.52h-4.72V21.5z"/>
	<path class="st3" d="M25.92,21.5h1.49l2.22,3.49V21.5h1.71v6.94h-1.49l-2.22-3.49v3.49h-1.71V21.5z"/>
	<path class="st3" d="M35.25,28.5c-0.36,0-0.7-0.06-1.02-0.18c-0.32-0.12-0.59-0.28-0.83-0.5c-0.24-0.22-0.43-0.48-0.57-0.78
		c-0.14-0.31-0.2-0.65-0.2-1.03v-4.5h1.71v4.47c0,0.32,0.08,0.58,0.24,0.75c0.16,0.18,0.39,0.26,0.67,0.26
		c0.29,0,0.51-0.09,0.68-0.26c0.17-0.18,0.25-0.43,0.25-0.75V21.5h1.71V26c0,0.38-0.07,0.73-0.21,1.03
		c-0.14,0.31-0.33,0.57-0.57,0.78c-0.24,0.22-0.52,0.39-0.84,0.5C35.94,28.44,35.6,28.5,35.25,28.5z"/>
</g>
</svg>
