<?xml version="1.0" encoding="utf-8"?>
<!-- Generator: Adobe Illustrator 24.3.0, SVG Export Plug-In . SVG Version: 6.00 Build 0)  -->
<svg version="1.1" id="Layer_1" xmlns="http://www.w3.org/2000/svg" xmlns:xlink="http://www.w3.org/1999/xlink" x="0px" y="0px"
	 viewBox="0 0 50 50" style="enable-background:new 0 0 50 50;" xml:space="preserve">
<style type="text/css">
	.st0{fill:#EAC92B;}
	.st1{fill:none;stroke:#231F20;stroke-width:1.0222;stroke-miterlimit:10;}
	.st2{opacity:0.5;fill-rule:evenodd;clip-rule:evenodd;fill:#FFFFFF;}
	.st3{fill:#231F20;}
</style>
<circle class="st0" cx="25" cy="25" r="25"/>
<circle class="st1" cx="25" cy="25" r="23"/>
<path class="st2" d="M25.18,23.61c0.51-0.64,0.91-1.13,1.11-1.4c0.14-0.18,0.16-0.45,0.11-0.68c-0.28-1.05-0.76-2.92,1.05-4.81
	c2.08-2.18,5.94-5.52,7.33-6.73L41,14.86c-0.82,1.62-3.1,6.2-4.68,8.74c-1.44,2.32-3.41,2.27-4.53,2.23c-0.24,0-0.47,0.1-0.62,0.29
	c-0.31,0.4-1.06,1.33-2.02,2.52l4.96,6.31c1.06,1.36,0.82,3.33-0.54,4.39C33.05,39.76,32.35,40,31.63,40c-0.88,0-1.78-0.36-2.43-1.2
	l-4.09-5.13c-1.97,2.44-3.7,4.62-4.05,5.06C20.42,39.55,19.51,40,18.57,40c-0.64,0-1.29-0.21-1.87-0.66
	c-1.55-1.21-1.64-3.08-0.57-4.45c0.5-0.64,2.7-3.41,4.97-6.21l-0.78-0.97l-2.51,1.96C15.42,26.38,11,17.68,11,13.04
	C11,9.88,13.22,10,13.3,10c0.68,0,1.36,0.31,1.82,0.9C15.65,11.57,20.51,17.71,25.18,23.61 M20.75,24.2l10.41,13.06
	c0.29,0.37,0.72,0.23,0.88,0.11l0,0c0.27-0.21,0.32-0.6,0.11-0.88c0,0-16.77-21.22-18.7-23.67c-0.09,1.78,1.48,7.09,5,13.17
	L20.75,24.2z M22.7,30.67l-4.52,5.65c-0.22,0.28-0.41,0.68,0,1c0.41,0.32,0.75,0.07,0.98-0.23l4.33-5.42L22.7,30.67z M27.56,26.62
	l1.78-2.21c0.45-0.58,0.95-1.07,2.21-1.08c0.95,0,1.84,0.25,2.65-1.05c1.4-2.27,3.81-6.59,3.81-6.59l-0.49-0.39l-3.82,4.95
	l-0.82-0.64l3.73-5.02l-0.52-0.4l-3.98,4.82l-0.81-0.63l3.85-4.92l-0.47-0.37c0,0-3.58,3.44-5.42,5.37
	c-1.01,1.06-0.56,1.89-0.35,2.8c0.29,1.23-0.11,1.82-0.55,2.38l-1.59,1.98C26.76,25.62,27.56,26.62,27.56,26.62z"/>
<g>
	<path class="st3" d="M4.75,21.56h2.73c0.38,0,0.72,0.06,1.01,0.19c0.29,0.13,0.54,0.29,0.73,0.5c0.2,0.21,0.35,0.44,0.45,0.71
		c0.1,0.26,0.15,0.54,0.15,0.82c0,0.23-0.03,0.44-0.1,0.64c-0.07,0.19-0.15,0.36-0.26,0.51c-0.11,0.15-0.23,0.28-0.36,0.39
		c-0.13,0.11-0.27,0.2-0.4,0.26l1.49,2.87H8.23l-1.22-2.56H6.45v2.56H4.75V21.56z M7.4,24.46c0.23,0,0.41-0.07,0.54-0.21
		c0.13-0.14,0.19-0.3,0.19-0.48c0-0.18-0.06-0.34-0.19-0.48c-0.13-0.14-0.31-0.21-0.54-0.21H6.45v1.39H7.4z"/>
	<path class="st3" d="M11.06,21.56h4.68v1.51h-2.99v1.15h2.55v1.51h-2.55v1.21h2.99v1.51h-4.68V21.56z"/>
	<path class="st3" d="M18.9,28.5c-0.26,0-0.52-0.01-0.75-0.04c-0.24-0.03-0.47-0.08-0.69-0.14c-0.22-0.07-0.43-0.16-0.62-0.28
		c-0.19-0.12-0.38-0.26-0.55-0.45l1.08-1.08c0.18,0.18,0.41,0.31,0.7,0.38c0.28,0.07,0.56,0.11,0.84,0.11
		c0.66,0,0.99-0.21,0.99-0.62c0-0.17-0.05-0.31-0.14-0.41c-0.1-0.1-0.25-0.16-0.45-0.18l-0.83-0.12c-0.61-0.09-1.07-0.29-1.38-0.61
		c-0.32-0.32-0.47-0.78-0.47-1.38c0-0.32,0.06-0.61,0.17-0.87s0.28-0.49,0.5-0.69c0.22-0.19,0.48-0.34,0.79-0.45
		c0.31-0.11,0.66-0.16,1.05-0.16c0.5,0,0.93,0.06,1.31,0.19c0.38,0.13,0.71,0.34,1.01,0.63l-1.06,1.06
		c-0.18-0.18-0.37-0.29-0.58-0.34c-0.21-0.04-0.45-0.07-0.73-0.07c-0.15,0-0.27,0.02-0.38,0.06c-0.1,0.04-0.19,0.09-0.26,0.15
		c-0.07,0.06-0.12,0.13-0.15,0.2c-0.03,0.07-0.05,0.15-0.05,0.23c0,0.04,0.01,0.1,0.03,0.16c0.02,0.06,0.05,0.11,0.11,0.16
		c0.04,0.04,0.1,0.09,0.18,0.13c0.07,0.04,0.17,0.06,0.29,0.08l0.83,0.12c0.61,0.08,1.06,0.27,1.35,0.57
		c0.19,0.18,0.32,0.4,0.4,0.65c0.08,0.25,0.12,0.54,0.12,0.86c0,0.35-0.07,0.66-0.21,0.93c-0.14,0.27-0.33,0.5-0.58,0.68
		c-0.24,0.18-0.52,0.32-0.85,0.42C19.6,28.45,19.26,28.5,18.9,28.5z"/>
	<path class="st3" d="M22.67,21.56h4.68v1.51h-2.99v1.15h2.55v1.51h-2.55v1.21h2.99v1.51h-4.68V21.56z"/>
	<path class="st3" d="M28.55,21.56h2.73c0.38,0,0.72,0.06,1.01,0.19c0.29,0.13,0.54,0.29,0.73,0.5c0.2,0.21,0.35,0.44,0.45,0.71
		c0.1,0.26,0.15,0.54,0.15,0.82c0,0.23-0.03,0.44-0.1,0.64c-0.07,0.19-0.15,0.36-0.26,0.51c-0.11,0.15-0.23,0.28-0.36,0.39
		c-0.13,0.11-0.27,0.2-0.4,0.26l1.49,2.87h-1.96l-1.22-2.56h-0.57v2.56h-1.69V21.56z M31.2,24.46c0.23,0,0.41-0.07,0.54-0.21
		c0.13-0.14,0.19-0.3,0.19-0.48c0-0.18-0.06-0.34-0.19-0.48c-0.13-0.14-0.31-0.21-0.54-0.21h-0.96v1.39H31.2z"/>
	<path class="st3" d="M34.06,21.56h1.75l1.16,3.85l1.14-3.85h1.76l-2.28,6.88h-1.26L34.06,21.56z"/>
	<path class="st3" d="M40.57,21.56h4.68v1.51h-2.99v1.15h2.55v1.51h-2.55v1.21h2.99v1.51h-4.68V21.56z"/>
</g>
</svg>
