<?xml version="1.0" encoding="utf-8"?>
<!-- Generator: Adobe Illustrator 24.3.0, SVG Export Plug-In . SVG Version: 6.00 Build 0)  -->
<svg version="1.1" id="Layer_1" xmlns="http://www.w3.org/2000/svg" xmlns:xlink="http://www.w3.org/1999/xlink" x="0px" y="0px"
	 viewBox="0 0 100 100" style="enable-background:new 0 0 100 100;" xml:space="preserve">
<style type="text/css">
	.st0{fill:#E9C926;}
</style>
<path class="st0" d="M50,0C22.38,0,0,22.39,0,50c0,27.61,22.39,50,50,50c27.61,0,50-22.39,50-50C100,22.39,77.61,0,50,0z
	 M73.85,37.76c0.04,0.53,0.05,1.06,0.05,1.6c0,16.26-12.4,35.02-35.03,35.02c-6.95,0-13.42-2.04-18.87-5.52
	c0.96,0.12,1.94,0.18,2.93,0.18c5.77,0,11.08-1.98,15.29-5.27c-5.39-0.11-9.93-3.68-11.51-8.55c0.75,0.13,1.52,0.23,2.31,0.23
	c1.13,0,2.22-0.16,3.25-0.45c-5.63-1.12-9.87-6.1-9.87-12.07c0-0.04,0-0.1,0-0.15c1.67,0.92,3.56,1.49,5.58,1.54
	c-3.31-2.21-5.48-5.98-5.48-10.25c0-2.26,0.6-4.37,1.67-6.19c6.07,7.44,15.15,12.34,25.37,12.86c-0.22-0.9-0.32-1.84-0.32-2.81
	c0-6.8,5.51-12.31,12.31-12.31c3.53,0,6.74,1.5,8.98,3.89c2.81-0.56,5.44-1.58,7.83-2.99c-0.93,2.87-2.87,5.28-5.43,6.8
	c2.5-0.29,4.87-0.96,7.08-1.94C78.36,33.86,76.26,36.02,73.85,37.76z"/>
</svg>
